HIERARCHY
ROOT hips
{
  OFFSET 0 10.6860622 2.3727825e-15
  CHANNELS 6 Xposition Yposition Zposition Yrotation Xrotation Zrotation
  JOINT leftUpperLeg
  {
    OFFSET 0.6642549969 -0.9402397400000004 0
    CHANNELS 3 Yrotation Xrotation Zrotation
    JOINT leftLowerLeg
    {
      OFFSET 0 -3.997221335632195 0
      CHANNELS 3 Yrotation Xrotation Zrotation
      JOINT leftFoot
      {
        OFFSET -0.13777839790000004 -4.6145792000000005 -0.22186036399999998
        CHANNELS 3 Yrotation Xrotation Zrotation
        JOINT leftToes
        {
          OFFSET -0.03777410834999995 -0.9130806927000008 0.85230013
          CHANNELS 3 Yrotation Xrotation Zrotation
          End Site
          {
            OFFSET -0.03777410834999995 -0.9130806927000008 0.85230013
          }
        }
      }
    }
  }
  JOINT rightUpperLeg
  {
    OFFSET -0.6642778626 -0.9402397400000004 0
    CHANNELS 3 Yrotation Xrotation Zrotation
    JOINT rightLowerLeg
    {
      OFFSET 0 -3.997221452859387 0
      CHANNELS 3 Yrotation Xrotation Zrotation
      JOINT rightFoot
      {
        OFFSET 0.1377926176 -4.6145792000000005 -0.22185782299999995
        CHANNELS 3 Yrotation Xrotation Zrotation
        JOINT rightToes
        {
          OFFSET 0.037780746850000047 -0.9130806927000008 0.85230167
          CHANNELS 3 Yrotation Xrotation Zrotation
          End Site
          {
            OFFSET 0.037780746850000047 -0.9130806927000008 0.85230167
          }
        }
      }
    }
  }
  JOINT spine
  {
    OFFSET 0 0.13988381660000015 0
    CHANNELS 3 Yrotation Xrotation Zrotation
    JOINT chest
    {
      OFFSET 0 0.6191039003973773 0
      CHANNELS 3 Yrotation Xrotation Zrotation
      JOINT upperChest
      {
        OFFSET 0 0.9855186130586943 0
        CHANNELS 3 Yrotation Xrotation Zrotation
        JOINT leftShoulder
        {
          OFFSET 0.1807663869 1.5087829790000005 0
          CHANNELS 3 Yrotation Xrotation Zrotation
          JOINT leftUpperArm
          {
            OFFSET 0.5985063006419806 0 0
            CHANNELS 3 Yrotation Xrotation Zrotation
            JOINT leftLowerArm
            {
              OFFSET 2.2993332369501065 0 0
              CHANNELS 3 Yrotation Xrotation Zrotation
              JOINT leftHand
              {
                OFFSET 2.395047042602395 0 0
                CHANNELS 3 Yrotation Xrotation Zrotation
                JOINT leftIndexProximal
                {
                  OFFSET 0.5766295810000004 0.04556643899499946 0.17265095988184
                  CHANNELS 3 Yrotation Xrotation Zrotation
                  JOINT leftIndexIntermediate
                  {
                    OFFSET 0.2957229000000008 -0.019352197700001517 -0.007932640616999987
                    CHANNELS 3 Yrotation Xrotation Zrotation
                    JOINT leftIndexDistal
                    {
                      OFFSET 0.19008243099999922 -0.012484908149998475 -0.002786250786000012
                      CHANNELS 3 Yrotation Xrotation Zrotation
                      End Site
                      {
                        OFFSET 0.19008243099999922 -0.012484908149998475 -0.002786250786000012
                      }
                    }
                  }
                }
                JOINT leftMiddleProximal
                {
                  OFFSET 0.5834975091000001 0.0524350405149987 0.02204081888183999
                  CHANNELS 3 Yrotation Xrotation Zrotation
                  JOINT leftMiddleIntermediate
                  {
                    OFFSET 0.33880573540000003 -0.019871473270000717 -0.00000971183179999946
                    CHANNELS 3 Yrotation Xrotation Zrotation
                    JOINT leftMiddleDistal
                    {
                      OFFSET 0.20676022730000088 -0.012221336379999448 0.0001471936708000235
                      CHANNELS 3 Yrotation Xrotation Zrotation
                      End Site
                      {
                        OFFSET 0.20676022730000088 -0.012221336379999448 0.0001471936708000235
                      }
                    }
                  }
                }
                JOINT leftLittleProximal
                {
                  OFFSET 0.5344154683999995 -0.012880921405001189 -0.24414037221816004
                  CHANNELS 3 Yrotation Xrotation Zrotation
                  JOINT leftLittleIntermediate
                  {
                    OFFSET 0.21758961730000093 -0.011650919939999227 0.011893592810000034
                    CHANNELS 3 Yrotation Xrotation Zrotation
                    JOINT leftLittleDistal
                    {
                      OFFSET 0.1475273964999999 -0.008152365682999818 0.006001092492999946
                      CHANNELS 3 Yrotation Xrotation Zrotation
                      End Site
                      {
                        OFFSET 0.1475273964999999 -0.008152365682999818 0.006001092492999946
                      }
                    }
                  }
                }
                JOINT leftRingProximal
                {
                  OFFSET 0.5799399463000003 0.026911854694997794 -0.12150566991816003
                  CHANNELS 3 Yrotation Xrotation Zrotation
                  JOINT leftRingIntermediate
                  {
                    OFFSET 0.26167887460000006 -0.013480186499999602 0.010996293000000053
                    CHANNELS 3 Yrotation Xrotation Zrotation
                    JOINT leftRingDistal
                    {
                      OFFSET 0.17667108799999987 -0.008990287899999228 0.0055541023999999065
                      CHANNELS 3 Yrotation Xrotation Zrotation
                      End Site
                      {
                        OFFSET 0.17667108799999987 -0.008990287899999228 0.0055541023999999065
                      }
                    }
                  }
                }
                JOINT leftThumbProximal
                {
                  OFFSET 0.11018806699999972 -0.09448718900500053 0.17047963138184
                  CHANNELS 3 Yrotation Xrotation Zrotation
                  JOINT leftThumbIntermediate
                  {
                    OFFSET 0.31062601459999983 -0.08126270900000132 0.15443142000000007
                    CHANNELS 3 Yrotation Xrotation Zrotation
                    JOINT leftThumbDistal
                    {
                      OFFSET 0.21627175790000086 -0.08833193599999878 0.018771167799999988
                      CHANNELS 3 Yrotation Xrotation Zrotation
                      End Site
                      {
                        OFFSET 0.21627175790000086 -0.08833193599999878 0.018771167799999988
                      }
                    }
                  }
                }
              }
            }
          }
        }
        JOINT neck
        {
          OFFSET 0 1.5463305265074576 0
          CHANNELS 3 Yrotation Xrotation Zrotation
          JOINT head
          {
            OFFSET 0 0.8456443600000344 0
            CHANNELS 3 Yrotation Xrotation Zrotation
            JOINT leftEye
            {
              OFFSET 0.30408573140000006 0.5104519199999995 0.1276382305
              CHANNELS 3 Yrotation Xrotation Zrotation
              End Site
              {
                OFFSET 0.30408573140000006 0.5104519199999995 0.1276382305
              }
            }
            JOINT rightEye
            {
              OFFSET -0.30409491089999996 0.5104519199999995 0.1276379445
              CHANNELS 3 Yrotation Xrotation Zrotation
              End Site
              {
                OFFSET -0.30409491089999996 0.5104519199999995 0.1276379445
              }
            }
            JOINT jaw
            {
              OFFSET -3.155239131000001e-7 -0.11984121820000082 0.60178107
              CHANNELS 3 Yrotation Xrotation Zrotation
              End Site
              {
                OFFSET -3.155239131000001e-7 -0.11984121820000082 0.60178107
              }
            }
          }
        }
        JOINT rightShoulder
        {
          OFFSET -0.1807303465 1.5087829790000005 0
          CHANNELS 3 Yrotation Xrotation Zrotation
          JOINT rightUpperArm
          {
            OFFSET -0.5985063796536958 0 0
            CHANNELS 3 Yrotation Xrotation Zrotation
            JOINT rightLowerArm
            {
              OFFSET -2.2993322059002854 0 0
              CHANNELS 3 Yrotation Xrotation Zrotation
              JOINT rightHand
              {
                OFFSET -2.395045314457259 0 0
                CHANNELS 3 Yrotation Xrotation Zrotation
                JOINT rightIndexProximal
                {
                  OFFSET -0.5764487688300002 0.0441371204405987 0.17361932004999997
                  CHANNELS 3 Yrotation Xrotation Zrotation
                  JOINT rightIndexIntermediate
                  {
                    OFFSET -0.29573011380000047 -0.01934826376999843 -0.007698921482999974
                    CHANNELS 3 Yrotation Xrotation Zrotation
                    JOINT rightIndexDistal
                    {
                      OFFSET -0.19008373999999884 -0.012503266380000655 -0.0026365778999999897
                      CHANNELS 3 Yrotation Xrotation Zrotation
                      End Site
                      {
                        OFFSET -0.19008373999999884 -0.012503266380000655 -0.0026365778999999897
                      }
                    }
                  }
                }
                JOINT rightMiddleProximal
                {
                  OFFSET -0.5834852037300005 0.05211639405060153 0.02307162440000001
                  CHANNELS 3 Yrotation Xrotation Zrotation
                  JOINT rightMiddleIntermediate
                  {
                    OFFSET -0.33880114510000003 -0.019952774050000954 0.0002455003561999819
                    CHANNELS 3 Yrotation Xrotation Zrotation
                    JOINT rightMiddleDistal
                    {
                      OFFSET -0.20675694929999955 -0.012273788999999091 0.00030209124000002766
                      CHANNELS 3 Yrotation Xrotation Zrotation
                      End Site
                      {
                        OFFSET -0.20675694929999955 -0.012273788999999091 0.00030209124000002766
                      }
                    }
                  }
                }
                JOINT rightLittleProximal
                {
                  OFFSET -0.5346811737299992 -0.011214256288399227 -0.24363941305000003
                  CHANNELS 3 Yrotation Xrotation Zrotation
                  JOINT rightLittleIntermediate
                  {
                    OFFSET -0.21757715980000092 -0.011771559690000988 0.01201554387
                    CHANNELS 3 Yrotation Xrotation Zrotation
                    JOINT rightLittleDistal
                    {
                      OFFSET -0.1475201849000004 -0.00822055339600003 0.006082065407000015
                      CHANNELS 3 Yrotation Xrotation Zrotation
                      End Site
                      {
                        OFFSET -0.1475201849000004 -0.00822055339600003 0.006082065407000015
                      }
                    }
                  }
                }
                JOINT rightRingProximal
                {
                  OFFSET -0.5800810755299999 0.027657985680600072 -0.12066365025000003
                  CHANNELS 3 Yrotation Xrotation Zrotation
                  JOINT rightRingIntermediate
                  {
                    OFFSET -0.26166445029999974 -0.013623118409999302 0.011164098990000045
                    CHANNELS 3 Yrotation Xrotation Zrotation
                    JOINT rightRingDistal
                    {
                      OFFSET -0.17666387530000027 -0.009072900100000503 0.005668185599999959
                      CHANNELS 3 Yrotation Xrotation Zrotation
                      End Site
                      {
                        OFFSET -0.17666387530000027 -0.009072900100000503 0.005668185599999959
                      }
                    }
                  }
                }
                JOINT rightThumbProximal
                {
                  OFFSET -0.10997596379000074 -0.09577489355940072 0.16989765924999997
                  CHANNELS 3 Yrotation Xrotation Zrotation
                  JOINT rightThumbIntermediate
                  {
                    OFFSET -0.31036620999999986 -0.08229339117999834 0.15440884469999996
                    CHANNELS 3 Yrotation Xrotation Zrotation
                    JOINT rightThumbDistal
                    {
                      OFFSET -0.21631306399999906 -0.08825326400000111 0.018656797720000014
                      CHANNELS 3 Yrotation Xrotation Zrotation
                      End Site
                      {
                        OFFSET -0.21631306399999906 -0.08825326400000111 0.018656797720000014
                      }
                    }
                  }
                }
              }
            }
          }
        }
      }
    }
  }
}
MOTION
Frames: 4
Frame Time: 0.03333333333333333
0.0826239064335823 -9.260568005969239 0.05831084027886391 -12.010290893012328 -31.50121650323252 -8.173892294305857 -143.73525858546967 -65.1449710944802 161.79905607632597 -98.83989358977006 85.57618738941689 -88.763166254386 2.361021425834928 40.317802424270326 0.6027966218805373 0.0000024356302426712806 2.927434356758527 -5.427227504865553e-7 -114.0637064069549 -25.81805831085354 53.56882363284504 172.82294896650944 53.19663552194518 -176.02829036044 19.58803426927849 29.720152946400933 17.458770399619375 0.0000015543296177952892 3.5355494847925795 -0.00001537662138250279 1.3068468621775486 31.577926792198387 7.1289304122176365 4.27193940710249 32.08494090394076 1.7259562695797999 0 0 0 -33.0310389237139 9.559030575463703 3.6398137868511715 -30.680966937718214 4.797486209687446 17.779722083282298 -87.8936010650239 0.7129630430925477 0.7396727388466191 -1.512920016586772 18.24435504065042 -33.79381792200671 3.874378879874822 0.2940871188984347 -17.211566180199842 2.381993638299452 0.5870865368294892 -27.68919230883821 1.122970991824746 0.12452942767240614 -12.657192111753465 4.191299501738179 0.4037444943301746 -20.95967390531785 3.325273087606386 1.2246726379517425 -40.429376994508075 1.1229648031400097 0.12451851535221803 -12.657201275057519 4.934058748599884 0.7590014103630408 -30.167194734693492 3.5762676758625664 1.4531797144614753 -44.218640782267954 1.532004945194814 0.234297565903755 -17.392314517430023 4.803114126105981 0.68543319618108 -28.48961088349877 3.6050995422555414 1.481451774477585 -44.66922885763419 1.4477385958641835 0.2087116326012903 -16.407937785692194 3.898421367207112 14.131826921936584 2.5674521005322295 14.165888369909105 6.307528882451736 -0.9109611105534521 2.24919189172507 -7.2534585911718965 23.8631691576051 1.3899548090936305 -2.0230179811050606 -2.659963068017818 6.947687041197772 -25.51279269473109 -4.6156745327543085 0 0 0 0 0 0 0 0 0 19.888499161352684 13.96346320849683 9.706550447678994 28.18308656098012 -9.300268322942141 12.477490372036781 66.04928961356055 0.4396684743657824 -0.6763901454799243 -3.920928516686336 1.512274877202809 -25.819868881338845 -4.566819378594421 0.783816776414252 35.64160423402792 -3.3797656074818314 1.9292451763707972 59.42775271270359 -0.013512834497481752 0.000029202234818977345 0.19727519086447398 -9.304154404514595 6.093458860627853 48.83032984138243 -2.116147241671806 0.6195462494888401 32.63411385126486 0.03853110818811103 0.00018979555169423964 -0.5626444374044461 -14.17663717524437 5.504790767149031 25.74513560980376 -2.000382681090474 0.5482270423936619 30.649381173031937 -0.7142191161938337 0.06555374203694773 10.489054119714941 -9.901368493399689 5.877847304710403 43.64932352288685 -2.100597449357778 0.609650710418374 32.36499285809466 -0.7155813024992482 0.06581229554941864 10.50918161836439 -4.52856334940368 -3.6332169575471744 -7.992274793033726 -29.39840432716813 4.221754213589924 12.597404319811579 -6.961324317651609 -5.318907952602503 -14.249234410374928
0.0826629251241684 -9.260557634761048 0.05808781459927559 -12.014107382713968 -31.5096001177798 -8.175801702403957 -143.7093500764178 -65.14901761043186 161.77440826640463 -98.84512661535499 85.57047956747492 -88.76839697821686 2.3616109433717347 40.32086613285082 0.5967017227965143 -0.000002170858407722254 2.9193065265581066 -0.000003367325900370329 -114.0553184918618 -25.82053567787533 53.558408539866385 172.8284859168208 53.20139013144126 -176.02124297276703 19.608439952035273 29.734577914534903 17.45407735462178 -0.000003970768896642662 3.527062869398855 2.819662634977686e-7 1.3011856967671498 31.585423292114367 7.123797580913184 4.2688497783914094 32.08935467538318 1.722371676044922 0 0 0 -33.018324808292995 9.562374292895361 3.6532803993607366 -30.691126762257515 4.800469936307399 17.773654660794232 -87.88800380900528 0.7128776057533033 0.7396665049344402 -1.5009147274574266 18.229524554891192 -33.7922743407969 3.874378879874822 0.2940871188984347 -17.211566180199842 2.381993638299452 0.5870865368294892 -27.68919230883821 1.122970991824746 0.12452942767240614 -12.657192111753465 4.191299501738179 0.4037444943301746 -20.95967390531785 3.325273087606386 1.2246726379517425 -40.429376994508075 1.1229648031400097 0.12451851535221803 -12.657201275057519 4.934058748599884 0.7590014103630408 -30.167194734693492 3.5762676758625664 1.4531797144614753 -44.218640782267954 1.532004945194814 0.234297565903755 -17.392314517430023 4.803114126105981 0.68543319618108 -28.48961088349877 3.6050995422555414 1.481451774477585 -44.66922885763419 1.4477385958641835 0.2087116326012903 -16.407937785692194 3.898421367207112 14.131826921936584 2.5674521005322295 14.165888369909105 6.307528882451736 -0.9109611105534521 2.24919189172507 -7.2534585911718965 23.8631691576051 1.3943781434308946 -2.0226724143190973 -2.6423958838598627 6.987886472485689 -25.476035944406767 -4.599447131383403 0 0 0 0 0 0 0 0 0 19.89048291384672 13.963043558084582 9.709817003191228 28.190986293281657 -9.305729167281267 12.473315671090715 66.0440179867797 0.439595501251307 -0.6763535947662263 -3.9146185991919675 1.5159508024377382 -25.817137204367725 -4.566819378594421 0.783816776414252 35.64160423402792 -3.3797656074818314 1.9292451763707972 59.42775271270359 -0.013512834497481752 0.000029202234818977345 0.19727519086447398 -9.304154404514595 6.093458860627853 48.83032984138243 -2.116147241671806 0.6195462494888401 32.63411385126486 0.03853110818811103 0.00018979555169423964 -0.5626444374044461 -14.17663717524437 5.504790767149031 25.74513560980376 -2.000382681090474 0.5482270423936619 30.649381173031937 -0.7142191161938337 0.06555374203694773 10.489054119714941 -9.901368493399689 5.877847304710403 43.64932352288685 -2.100597449357778 0.609650710418374 32.36499285809466 -0.7155813024992482 0.06581229554941864 10.50918161836439 -4.52856334940368 -3.6332169575471744 -7.992274793033726 -29.39840432716813 4.221754213589924 12.597404319811579 -6.961324317651609 -5.318907952602503 -14.249234410374928
0.0825490728020668 -9.260550601412964 0.05772225558757782 -12.019648481868975 -31.531626211044532 -8.177688727610626 -143.65468765669755 -65.16234785055785 161.7219687988131 -98.87485569838056 85.5612916854048 -88.7981772098208 2.3647087918057603 40.32385830993284 0.5893876410234881 -8.795456976174641e-7 2.911738272220242 2.8366759427904103e-7 -114.03514204773523 -25.822466770198194 53.53240823350499 172.8405180777278 53.20507332098718 -176.01276076275278 19.613905559798248 29.73364974619542 17.463646237258008 -0.000003816198477725845 3.527891104901054 -0.000006893031441314834 1.287091668742478 31.608718405699285 7.116780768521469 4.261655759679736 32.09786841489081 1.7131902967157766 0 0 0 -32.99864213091784 9.570473982926082 3.6823363242882796 -30.69354155573052 4.81452168644172 17.764453267353232 -87.8849870088527 0.7128388627755051 0.7396513505424239 -1.4738054714143218 18.18470637691181 -33.79403960257308 3.874378879874822 0.2940871188984347 -17.211566180199842 2.381993638299452 0.5870865368294892 -27.68919230883821 1.122970991824746 0.12452942767240614 -12.657192111753465 4.191299501738179 0.4037444943301746 -20.95967390531785 3.325273087606386 1.2246726379517425 -40.429376994508075 1.1229648031400097 0.12451851535221803 -12.657201275057519 4.934058748599884 0.7590014103630408 -30.167194734693492 3.5762676758625664 1.4531797144614753 -44.218640782267954 1.532004945194814 0.234297565903755 -17.392314517430023 4.803114126105981 0.68543319618108 -28.48961088349877 3.6050995422555414 1.481451774477585 -44.66922885763419 1.4477385958641835 0.2087116326012903 -16.407937785692194 3.898421367207112 14.131826921936584 2.5674521005322295 14.165888369909105 6.307528882451736 -0.9109611105534521 2.24919189172507 -7.2534585911718965 23.8631691576051 1.4023104930044419 -2.025449124549214 -2.620419331336888 7.049623357325603 -25.401987131740217 -4.577927579878446 0 0 0 0 0 0 0 0 0 19.892732627793276 13.962501620737449 9.712488115611125 28.201215702167325 -9.338427672169784 12.469744885664666 66.04878369058169 0.4396540665113139 -0.6763959615788415 -3.911832380715653 1.5906079822390446 -25.757542976606096 -4.566819378594421 0.783816776414252 35.64160423402792 -3.3797656074818314 1.9292451763707972 59.42775271270359 -0.013512834497481752 0.000029202234818977345 0.19727519086447398 -9.304154404514595 6.093458860627853 48.83032984138243 -2.116147241671806 0.6195462494888401 32.63411385126486 0.03853110818811103 0.00018979555169423964 -0.5626444374044461 -14.17663717524437 5.504790767149031 25.74513560980376 -2.000382681090474 0.5482270423936619 30.649381173031937 -0.7142191161938337 0.06555374203694773 10.489054119714941 -9.901368493399689 5.877847304710403 43.64932352288685 -2.100597449357778 0.609650710418374 32.36499285809466 -0.7155813024992482 0.06581229554941864 10.50918161836439 -4.52856334940368 -3.6332169575471744 -7.992274793033726 -29.39840432716813 4.221754213589924 12.597404319811579 -6.961324317651609 -5.318907952602503 -14.249234410374928
0.08233465999364853 -9.26054642908783 0.057607945054769516 -12.02521435297384 -31.548499837464668 -8.174236512037792 -143.61632633612246 -65.17342354748781 161.6860889149429 -98.93765931775202 85.55384048360135 -88.86113495324349 2.3671022589826416 40.322877327085 0.5850080890788704 -0.000006832765436968552 2.911469413335969 0.000001961475699802204 -114.01711356109253 -25.81990400126946 53.51237586853244 172.8485491168874 53.20182343143 -176.01278742751606 19.578978781389367 29.7044188028451 17.486748617014804 0.00001035809477789874 3.5422304100640347 0.000014530266302532216 1.27393741018729 31.62993365719176 7.1170599730255955 4.254933680681861 32.102145739730176 1.7043714550073472 0 0 0 -32.985617982433645 9.577945263155032 3.706442215224096 -30.682717698253885 4.834819076332532 17.75821231751516 -87.89019497594931 0.7129142674970572 0.7396676162349539 -1.450651128609764 18.151096257721694 -33.781832961431206 3.874378879874822 0.2940871188984347 -17.211566180199842 2.381993638299452 0.5870865368294892 -27.68919230883821 1.122970991824746 0.12452942767240614 -12.657192111753465 4.191299501738179 0.4037444943301746 -20.95967390531785 3.325273087606386 1.2246726379517425 -40.429376994508075 1.1229648031400097 0.12451851535221803 -12.657201275057519 4.934058748599884 0.7590014103630408 -30.167194734693492 3.5762676758625664 1.4531797144614753 -44.218640782267954 1.532004945194814 0.234297565903755 -17.392314517430023 4.803114126105981 0.68543319618108 -28.48961088349877 3.6050995422555414 1.481451774477585 -44.66922885763419 1.4477385958641835 0.2087116326012903 -16.407937785692194 3.898421367207112 14.131826921936584 2.5674521005322295 14.165888369909105 6.307528882451736 -0.9109611105534521 2.24919189172507 -7.2534585911718965 23.8631691576051 1.4071435812652717 -2.0360060490535163 -2.612373390016696 7.080302321365515 -25.323587779715208 -4.5781077706665725 0 0 0 0 0 0 0 0 0 19.89327975881113 13.961884024859932 9.714126138689743 28.208246214742598 -9.36544326210528 12.461915629359373 66.06762770029232 0.4398718919288751 -0.67647283843486 -3.929524984334001 1.6726188779562392 -25.688281342254545 -4.566819378594421 0.783816776414252 35.64160423402792 -3.3797656074818314 1.9292451763707972 59.42775271270359 -0.013512834497481752 0.000029202234818977345 0.19727519086447398 -9.304154404514595 6.093458860627853 48.83032984138243 -2.116147241671806 0.6195462494888401 32.63411385126486 0.03853110818811103 0.00018979555169423964 -0.5626444374044461 -14.17663717524437 5.504790767149031 25.74513560980376 -2.000382681090474 0.5482270423936619 30.649381173031937 -0.7142191161938337 0.06555374203694773 10.489054119714941 -9.901368493399689 5.877847304710403 43.64932352288685 -2.100597449357778 0.609650710418374 32.36499285809466 -0.7155813024992482 0.06581229554941864 10.50918161836439 -4.52856334940368 -3.6332169575471744 -7.992274793033726 -29.39840432716813 4.221754213589924 12.597404319811579 -6.961324317651609 -5.318907952602503 -14.249234410374928
